<svg version="1.1" xmlns="http://www.w3.org/2000/svg"
 	xmlns:xlink="http://www.w3.org/1999/xlink"
	viewBox="400 0 400 600" >
	
	<path class="st0" d="M421.012,543.345l-1.076,1.204l-0.968,0.399l-0.837,0.559l-0.73,1.749l3.727,1.662l-0.361,3.529l-3.012,3.448
		l-4.211,1.394l-14.692-3.241l-4.764,1.109l-4.518,2.132l-3.573,3.332l-2.129-0.365l-8.79-5.252l-5.763-5.063l-10.381-6.651
		l-4.68-1.038l-5.056-2.376l-5.11-1.232l-2.005-1.798l-0.953-2.478l0.615-2.766l2.367-1.393l2.882,0.467l2.682-0.213l1.744-3.428
		l-1.529-0.574l-1.283-1.001l-5.018-6.288l-0.607-1.102v-2.826l1.283-2.607l3.927-4.755l1.337,0.662l13.555-2.81l2.298,1.097
		l4.48,3.639l1.66,0.776l1.683,1.411l2.835,6.247l2.251,1.409l2.267,0.521l16.805,9.547l-0.907-2.854l-1.091-1.774l-0.077-1.414
		l2.075-1.789h2.582l2.29-1.068l0.938-0.147l-0.853-1.783l-0.23-2.05l0.146-2.078l0.292-1.844l7.208,6.594l0.584,2.377l2.236,2.91
		l1.421,1.121l1.568,0.454l-0.953,0.907l-0.4,0.214l1.383,2.92l4.733,3.945l1.03,1.572l0.254,2.677l0.392,1.205v0.958
		L421.012,543.345z M475.015,494.384l8.268,1.723l3.104,2.861l1.521,5.645l-0.184,1.793l-0.861,0.99l-1.552,0.408l-2.213,0.08
		l-11.157-2.449l-3.419,0.502l-3.25,1.505l-3.204,2.682l-5.025,6.884l-1.798,1.062l-2.743-0.461l-6.017-3.007v-1.023h1.337
		l-0.423-1.678l0.4-1.297l0.876-0.923l1.03-0.589l-0.476-0.488l-0.899-1.284l-0.507-0.462l2.098-2.382l1.229-0.616l1.191,0.75
		l0.692-1.225l-0.692-2.25l1.522,0.141l2.282,1.594l1.406,0.515l0.945-0.181l3.074-1.285l1.145-0.784l-0.507-1.627l-0.023-1.326
		l0.415-0.985l0.807-0.563v-1.126l-3.081-2.212l-0.837-1.16l-0.484-1.65l0.323-1.134l1.037-0.584h1.706l2.052,3.662l3.166,1.448
		L475.015,494.384z M469.543,399.074l-2.634,1.536l-1.821,1.91l-6.009,6.298l-0.015,0.02l-4.733,9.779l2.528,8.762l4.587,4.102
		l1.614,0.548l5.809,0.413l1.583,0.724l4.088,3.484l2.136,2.569l0.93,2.46l0.161,2.851l0.43,2.404l1.337,4.468l-1.398,1.754
		l-0.53,0.519l-4.926,3.52l-19.794,4.657l-1.491,1.63l-2.421,1.549l-1.913,2.801l-1.137,3.364l0.561,2.811l-0.715,1.425
		l-0.799,0.605l-0.838-0.134l-0.884-0.766l0.699-3.551l-1.083-2.247l-1.913-0.619l-1.852,1.346l-0.845,0.807l-0.738,0.283
		l-0.507,0.578l-0.207,1.708l0.515,0.679l2.712,2.138l7.922,0.692l3.596,1.223l0.791,3.829l-0.53,1.625l-0.599,0.685l-0.692,0.349
		l-0.814,0.624l-1.952,1.081l-0.938,0.872l0.684,0.403l3.55,7.866l-0.1,3.129l-1.26,1.688l-1.936,0.683l-2.213,0.127l-1.46,0.583
		l-3.173,2.45l-2.167,0.442l-3.296-1.386l-5.118-4.869l-3.181-0.596l-0.061,0.784l0.154,0.188l0.254-0.007l0.284,0.161l-0.515,0.322
		l-0.284,0.382l-0.353,0.335l-0.707,0.188l0.415,3.134l-0.676,1.874l-0.884,1.619l-0.207,2.355l0.691,1.839l1.245,1.09l1.429,0.174
		l1.199-0.949l-0.246-0.602l-0.461-1.552l0.822-0.107l2.405-1.104l0.768,0.916l1.345,3.016l0.184,0.649l0.876,0.655l3.066,3.007
		l1.552,0.822l1.752-0.22l1.829-0.575l1.714-0.04l1.452,1.396l2.651,4.047l2.859,3.344v1.021l-8.353,6.861l-1.375,1.579
		l-3.696,7.079l-0.499,1.351l-0.945,0.685l-2.536,3.073l-0.999,0.705l-1.375,2.274l-0.046,5.183l1.06,9.253l-0.23,5.841L430.817,570
		l-1.967-2.506l-0.43-2.307l-1.352-1.857l-3.089-6.106l-0.707-2.065l0.138-3.388l1.137-2.625l2.597-4.123l-1.913-0.412l-1.329-0.905
		l-0.331-1.67l0.991-2.696l-1.076-0.639l-0.584-0.839l-0.922-1.878l-4.38-4.585l-0.346-0.753l-0.423-1.367l-0.2-1.314l0.115-0.874
		l-0.023-0.88l-0.599-1.308l-1.644-1.902l-1.46-1.161l-1.03-1.622l-0.384-3.266l-0.023-3.007l-0.315-2.32l-0.953-1.618l-1.936-0.91
		v-1.211l3.619-2.884l0.899-0.388l1.352,0.502l1.829,2.255l1.037,0.515l1.022-0.642l2.152-2.309l0.4,0.241l0.615,0.91l1.337-0.749
		l1.921-1.948v-1.024l-0.991-1.286l-1.775-5.024l-1.106-1.669l-6.339-3.024l-1.798-0.349l-0.507-0.349l-1.253-1.549l-0.776-0.342
		l-5.971-0.349l-1.783-0.98l-1.537-1.45l-1.368-1.833l5.071,1.087l9.974,4.65l4.933,1.113l-2.09-3.824l-5.848-4.397l-2.436-4.158
		l8.153-1.505l0.53-0.665l-0.246-1.324l-2.036-1.708l-5.371,0.404l-1.614-2.172l1.398-1.493l0.799-1.938l-0.154-1.898l-1.46-1.353
		l-2.129,0.04l-1.591,1.441l-1.36,1.831l-1.36,1.211l-1.245-0.108l-3.481-1.602l-7.1-1.784l-1.714-1.03l-1.291,0.687l-6.531-2.936
		l-1.214,0.296l-2.582,1.482l-1.329,0.471h-6.508v1.131l1.936,1.131l-3.266-0.121l-2.351-0.862l-1.475-2.35l-0.645-4.574
		l1.375,1.017l1.391,0.061l1.153-1.065l0.592-2.278l-0.968,0.742l-1.007,0.357l-2.213,0.128l-0.3-0.903l0.261-4.039l-0.607-0.911
		l-1.698-1.032l-5.194-4.799l-0.876-1.54l0.861-0.405l1.368-0.162l1.114-0.567l0.177-1.689l-0.738-0.824l-1.352-0.392l-1.452-0.074
		l-0.968,0.156l-0.653,0.899l-0.43,1.398l-0.692,1.094h-1.452l-0.592-0.743l-1.337-3.689v-1.23l2.536,0.257l1.352-0.128l0.945-0.696
		l0.83-1.089l1.083-0.893l1.183-0.629l1.091-0.223l1.99-0.9l0.93-1.989l-0.1-1.99l-1.153-0.907l0.369-1.686l-0.791-3.746
		l-1.89-5.931l-1.183-2.075l-1.206-1.404l-1.468-0.801l-1.944-0.278l-1.683,1.215l-1.076,0.326l-0.461-0.923l0.177-2.246
		l0.546-1.215l0.907-0.475l1.268-0.102l2.49-0.937l0.991-2.404l-0.261-3.139l-1.283-3.202l-4.173-5.292l-4.595-2.763l-10.32-2.792
		v-1.253l14.899,1.253l-1.575-2.814l-5.894-2.569l-2.267-1.479l-0.976-1.63l-0.569-1.269l-0.761-0.996l-1.568-0.792l-4.926-0.368
		l-1.506-0.88v-1.044l14.876,2.293l3.081-0.532l5.901-2.361l3.266-0.532v1.133l-1.045-0.15l-0.999,0.068l-0.968,0.368l-0.853,0.757
		l1.483,2.927l2.443,2.292l2.759,0.845l2.397-1.377l-3.927-3.438l1.291-1.249l0.884,0.908l1.575,0.396l3.404-0.055l1.529-0.614
		l3.212-2.314l3.235-0.737l1.468-0.819l1.114-1.564l0.461-2.493l0.1-1.312l0.446-2.317l0.092-1.066l-0.338-1.333l-1.644-2.414
		l-0.592-1.361l2.405,1.608l2.321,0.397l2.198-0.937l2.044-2.32l3.227,0.712l2.613-4.572l0.499-6.659l-3.127-5.575l-2.736-1.153
		l-6.055-0.446l-7.53-2.869l-2.136-1.874l-0.876-2.974l12.079,5.837l2.49-0.597l14.553,2.306l1.729,1.647l3.919-0.226l6.662-2.059
		l3.435-2.128l1.936-0.384l1.083,1.462l-0.415,1.688l-2.651,3.211l-0.807,2.016l1.107,1.762l-0.615,1.117l-1.521,0.247l-1.552-0.822
		l0.2-0.617l0.384-1.686l-3.004,0.165l-1.222,0.665l-0.922,1.474l4.68,8.261l1.79,4.605l-1.322,3.317l-1.437,0.253l-2.943-0.807
		l-1.414,0.554l-1.729,2.502l-1.107,0.923l-1.744,0.021v1.25l1.56,0.506l4.657-0.506l1.268-0.574l1.491-1.168l1.66-0.882
		l1.737,0.219l0.63,1.34l0.983,2.76l0.738,2.704l-0.092,1.229l-7.592,1.379l-1.675,0.696l-0.691,1.051l1.199,1.344l1.36,0.205
		l4.242-0.327l0.899-0.402l0.715-0.846l1.575,1.617l2.29,3.396l0.676,2.209l-0.061,0.825l-0.553,1.015l-0.768,2.814l1.683-1.587
		l1.222-1.587l3.942-8.68l0.198-0.21l0.117,0.017l3.576-0.269l1.156-0.542l0.166-0.429l0.146-0.199l1.493,0.451l4.512,2.77
		l-0.691,2.769l-0.676,1.923l-3.319,3.23l-1.214,2.343l1.913,0.422l2.712-1.253l2.175-2.31l0.284-2.678l1.506-0.634l1.552,0.498
		l1.352,1.425l0.799,2.133l-2.935-1.009l-0.392,0.388l0.592,1.533l1.437,1.165l3.181,1.349l0.83-3.508l2.167-5.324l0.284-3.745
		l-1.792-8.364h0.02l3.46,0.017l3.65,3.565l1.537,1.513l6.855,1.227l-1.303,1.248l0.161,0.91l0.205,0.425l0.22,0.398l0.337,0.381
		l1.82,1.117l0.22,0.39l-0.293,0.745l-3.708,2.727l-2.171,0.861l-3.279,2.644l0.717,1.047l0.073,0.311l0.073,0.381l-0.044,0.411
		l-0.146,0.506l-0.117,0.666l-0.117,1.167l0.176,0.891l0.439,0.73l0.103,1.979l2.918,1.326l1.8-0.104l1.859-1.115l1.147,0.873
		l2.767-0.441l3.342,0.406l4.006,1.996L469.543,399.074z"/>
	<path class="st0" d="M733.183,477.396l-0.446,0.82l-0.2,0.564l-0.208,0.444l-0.438,0.43l0.692,2.418l0.254,1.531l-0.284,1.403
		l-0.984,2.02l-2.029,3.334l-0.584,1.643l0.354,1.368v1.012l0.272,1.964l-1.5,1.724l-1.007,1.417l-1.324,1.247l-4.627-1.268
		l-3.852-0.276l-5.25-2.088l-6.483-4.041l-7.344-2.126l-7.674-6.275l-1.452-2.008l1.215-3.517l0.414-6.946l0.407-10.083l0.33-1.684
		l0.784-1.813l1.844-3.297l0.761-2.469l0.661-2.854l0.83-1.741l1.291,0.891l3.811,5.553l1.322,1.443l2.122,2.237l3.549,2.481
		l3.568,2.884l2.602-0.572l1.798,0.517l1.545,3.326l1.014,1.259l1.168,0.76l6.768,4.835l4.443,1.508L733.183,477.396z
		 M493.764,385.095l5.486,13.821l0.069,0.714L496,403.471l-1.437,0.442l-1.744,1.06l-1.591,1.325l-1.03,1.223l-2.044,0.591
		l-2.029-3.145l-1.352-4.581l-0.031-3.755l1.022-2.123l1.222-1.416l1.214-1.103l0.999-1.178l1.014-2.084l1.598-4.17l1.26-1.636
		l0.392,1.002l0.146,0.45L493.764,385.095z M421.879,377.718l0.102-0.111l-0.207-1.201l-0.876-2.13l-0.207-0.628l0.3-1.926
		l0.73-2.418l1.552-3.772l1.406-1.497l3.343-0.964l1.69-0.985l1.537-4.749l-1.936-5.492l-2.228-4.941l0.692-3.209l1.69,0.144
		l3.327,3.552l1.76,0.912l0.907,0.733l-0.031,1.693l-0.384,1.891l-0.169,1.315l0.407,2.13l0.361,0.767l0.446,0.513l0.715,1.293
		l1.775,4.905l1.675,6.93l0.277,6.493l-2.436,3.561l-3.412-1.241l-1.637,0.232l-4.512-2.77l-1.493-0.451l-0.146,0.199l-0.166,0.429
		l-1.156,0.542l-3.576,0.269L421.879,377.718z M442.81,369.87l-2.135-9.981v-5.955l-0.346-2.404l-2.236-8.987l-1.468-2.347
		l-1.713-0.899l-2.052,0.124l-7.215,2.964l-2.72,0.494l-1.591-1.489l1.598-4.139l4.887-4.203l8.983-5.588l14.438-12.347l7.53-4.238
		l7.868,0.31l8.16,4.72h6.724l1.821,0.992l3.304,3.009l2.805,1.205l4.895,4.142l-1.276,2.661l-3.873,5.313l-1.383,2.85l-2.566,6.713
		l-1.214,1.955v1.255l2.605,3.804l1.337,2.59l0.576,2.178l0.43,3.163l1.03,3.695l1.291,3.31l1.183,2.037l-0.4,1.64l-0.2,2.241
		l-0.108,3.565l-0.538,2.894l-0.108,1.119l0.123,0.805l0.338,0.859l0.891,1.773l-1.983,2.598l-3.796,7.399l-3.565,2.485
		l-0.615,2.048l-0.907,1.993l-2.09,0.721l-1.552-0.558l-1.114-0.925l-1.237-0.742l-1.898-0.061l-4.189,2.443l-0.008-0.004
		l-4.006-1.996l-3.342-0.406l-2.767,0.441l-1.147-0.873l-1.859,1.115l-1.8,0.104l-2.918-1.326l-0.103-1.979l-0.439-0.73
		l-0.176-0.891l0.117-1.167l0.117-0.666l0.146-0.506l0.044-0.411l-0.073-0.381l-0.073-0.311l-0.717-1.047l3.279-2.644l2.171-0.861
		l3.708-2.727l0.293-0.745l-0.22-0.39l-1.82-1.117l-0.337-0.381l-0.22-0.398l-0.205-0.425l-0.161-0.91l1.303-1.248l-6.855-1.227
		l-1.537-1.513l-3.65-3.565l-3.46-0.017H442.81z"/>
</svg>
