<svg xmlns="http://www.w3.org/2000/svg" version="1.1" xmlns:xlink="http://www.w3.org/1999/xlink" xmlns:svgjs="http://svgjs.dev/svgjs" width="1000" height="623" viewBox="0 0 1000 623"><g transform="matrix(1,0,0,1,-0.6060606060606233,0.2522267206477409)"><svg viewBox="0 0 396 247" data-background-color="#ffffff" preserveAspectRatio="xMidYMid meet" height="623" width="1000" xmlns="http://www.w3.org/2000/svg" xmlns:xlink="http://www.w3.org/1999/xlink"><g id="tight-bounds" transform="matrix(1,0,0,1,0.2400000000000091,-0.09999999999999432)"><svg viewBox="0 0 395.52 247.2" height="247.2" width="395.52"><g><svg></svg></g><g><svg viewBox="0 0 395.52 247.2" height="247.2" width="395.52"><g transform="matrix(1,0,0,1,39.55199999999999,106.45501316785227)"><svg viewBox="0 0 316.416 34.28997366429544" height="34.28997366429544" width="316.416"><g><svg viewBox="0 0 316.416 34.28997366429544" height="34.28997366429544" width="316.416"><g><svg viewBox="0 0 316.416 34.28997366429544" height="34.28997366429544" width="316.416"><g><svg viewBox="0 0 316.416 34.28997366429544" height="34.28997366429544" width="316.416"><g><svg viewBox="0 0 316.416 34.28997366429544" height="34.28997366429544" width="316.416"><g><svg viewBox="0 0 316.416 34.28997366429544" height="34.28997366429544" width="316.416"><g transform="matrix(1,0,0,1,0,0)"><svg width="316.416" viewBox="3.9000000953674316 -35.150001525878906 330.33001708984375 35.80000305175781" height="34.28997366429544" data-palette-color="#121111"><path d="M10.7-34.55L10.7-34.55Q13.2-34.55 15.8-34.55 18.4-34.55 20.93-34.48 23.45-34.4 25.75-34.25L25.75-34.25 25.55-30.4 11.8-30.4Q10.3-30.4 9.6-29.65 8.9-28.9 8.9-27.25L8.9-27.25 8.9-7.25Q8.9-5.6 9.6-4.83 10.3-4.05 11.8-4.05L11.8-4.05 25.55-4.05 25.75-0.25Q23.45-0.1 20.93-0.05 18.4 0 15.8 0.03 13.2 0.05 10.7 0.05L10.7 0.05Q7.6 0.05 5.78-1.63 3.95-3.3 3.9-6.1L3.9-6.1 3.9-28.4Q3.95-31.25 5.78-32.9 7.6-34.55 10.7-34.55ZM4.8-16.25L4.8-20.1 23.6-20.1 23.6-16.25 4.8-16.25ZM32.25-34.5L37.2-34.5 37.2-7.3Q37.2-5.7 38-4.93 38.8-4.15 40.45-4.15L40.45-4.15 52.8-4.15 53.05-0.3Q49.7-0.05 46.25 0 42.8 0.05 39.35 0.05L39.35 0.05Q35.55 0.05 33.9-1.83 32.25-3.7 32.25-6.55L32.25-6.55 32.25-34.5ZM55.3-14.4L70.5-14.4 70.5-10.9 55.3-10.9 55.3-14.4ZM90.59-35.1L90.59-35.1Q92.84-35.1 94.44-35 96.04-34.9 97.39-34.68 98.74-34.45 100.19-34.05L100.19-34.05 99.69-30.3Q98.19-30.45 96.89-30.53 95.59-30.6 94.12-30.65 92.64-30.7 90.59-30.7L90.59-30.7Q87.39-30.7 85.54-29.45 83.69-28.2 82.92-25.28 82.14-22.35 82.14-17.25L82.14-17.25Q82.14-12.15 82.92-9.22 83.69-6.3 85.54-5.05 87.39-3.8 90.59-3.8L90.59-3.8Q93.84-3.8 96.07-3.93 98.29-4.05 100.39-4.35L100.39-4.35 100.89-0.6Q98.69 0.05 96.37 0.33 94.04 0.6 90.59 0.6L90.59 0.6Q85.59 0.6 82.57-1.13 79.54-2.85 78.19-6.75 76.84-10.65 76.84-17.25L76.84-17.25Q76.84-23.85 78.19-27.75 79.54-31.65 82.57-33.38 85.59-35.1 90.59-35.1ZM118.84-35.15L118.84-35.15Q122.64-35.15 125.32-34.25 127.99-33.35 129.59-31.3 131.19-29.25 131.92-25.8 132.64-22.35 132.64-17.25L132.64-17.25Q132.64-12.2 131.92-8.72 131.19-5.25 129.59-3.2 127.99-1.15 125.32-0.25 122.64 0.65 118.84 0.65L118.84 0.65Q115.04 0.65 112.37-0.25 109.69-1.15 108.07-3.2 106.44-5.25 105.69-8.72 104.94-12.2 104.94-17.25L104.94-17.25Q104.94-22.35 105.69-25.8 106.44-29.25 108.07-31.3 109.69-33.35 112.37-34.25 115.04-35.15 118.84-35.15ZM118.84-30.8L118.84-30.8Q115.59-30.8 113.69-29.55 111.79-28.3 111.02-25.38 110.24-22.45 110.24-17.25L110.24-17.25Q110.24-12.1 111.02-9.15 111.79-6.2 113.69-4.95 115.59-3.7 118.84-3.7L118.84-3.7Q122.09-3.7 123.97-4.95 125.84-6.2 126.64-9.15 127.44-12.1 127.44-17.25L127.44-17.25Q127.44-22.45 126.64-25.38 125.84-28.3 123.97-29.55 122.09-30.8 118.84-30.8ZM161.99-34.5L166.84-34.5 166.84-1.95Q166.84 0 164.99 0L164.99 0 160.69 0Q159.84 0 159.36-0.4 158.89-0.8 158.54-1.55L158.54-1.55 147.24-24.85Q146.79-25.85 146.19-27.13 145.59-28.4 145.29-29.5L145.29-29.5 144.54-29.5Q144.64-28.35 144.69-27.18 144.74-26 144.74-24.8L144.74-24.8 144.74 0 139.84 0 139.84-32.55Q139.84-34.5 141.74-34.5L141.74-34.5 145.89-34.5Q146.74-34.5 147.24-34.1 147.74-33.7 148.09-32.95L148.09-32.95 158.99-10.25Q159.54-9.2 160.16-7.85 160.79-6.5 161.39-5.2L161.39-5.2 162.19-5.2Q162.09-6.55 162.04-7.88 161.99-9.2 161.99-10.5L161.99-10.5 161.99-34.5ZM185.14-35.1L185.14-35.1Q187.64-35.05 190.31-34.85 192.99-34.65 195.64-34.05L195.64-34.05 195.29-30.5Q193.14-30.6 190.46-30.65 187.79-30.7 185.29-30.7L185.29-30.7Q183.54-30.7 182.29-30.6 181.04-30.5 180.24-30.05 179.44-29.6 179.06-28.6 178.69-27.6 178.69-25.85L178.69-25.85Q178.69-23.2 179.69-22.13 180.69-21.05 182.94-20.5L182.94-20.5 189.89-18.65Q193.89-17.65 195.39-15.28 196.89-12.9 196.89-8.9L196.89-8.9Q196.89-5.9 196.21-4.05 195.54-2.2 194.11-1.2 192.69-0.2 190.44 0.2 188.19 0.6 185.09 0.6L185.09 0.6Q183.39 0.6 180.59 0.45 177.79 0.3 174.14-0.4L174.14-0.4 174.49-4.05Q177.44-3.95 179.31-3.88 181.19-3.8 182.54-3.8 183.89-3.8 185.24-3.8L185.24-3.8Q187.74-3.8 189.19-4.17 190.64-4.55 191.24-5.68 191.84-6.8 191.84-8.95L191.84-8.95Q191.84-10.8 191.41-11.85 190.99-12.9 190.06-13.43 189.14-13.95 187.69-14.3L187.69-14.3 180.54-16.25Q176.79-17.3 175.24-19.65 173.69-22 173.69-25.9L173.69-25.9Q173.69-28.9 174.36-30.75 175.04-32.6 176.44-33.52 177.84-34.45 179.99-34.77 182.14-35.1 185.14-35.1ZM223.88-34.5L228.88-34.5 228.88-13.3Q228.88-8.25 227.66-5.18 226.43-2.1 223.68-0.73 220.93 0.65 216.33 0.65L216.33 0.65Q211.53 0.65 208.68-0.73 205.83-2.1 204.56-5.18 203.28-8.25 203.28-13.3L203.28-13.3 203.28-34.5 208.28-34.5 208.28-13.3Q208.28-9.7 209.01-7.58 209.73-5.45 211.46-4.58 213.18-3.7 216.08-3.7L216.08-3.7Q218.98-3.7 220.66-4.58 222.33-5.45 223.11-7.58 223.88-9.7 223.88-13.3L223.88-13.3 223.88-34.5ZM264.73-34.5L270.13-34.5Q272.08-34.5 272.13-32.45L272.13-32.45 273.53 0 268.63 0 267.38-30.45 266.38-30.45 259.08-5.7Q258.68-4.05 256.98-4.05L256.98-4.05 252.88-4.05Q251.13-4.05 250.68-5.7L250.68-5.7 243.38-30.45 242.38-30.45 241.23 0 236.33 0 237.68-32.45Q237.78-34.5 239.68-34.5L239.68-34.5 245.08-34.5Q246.68-34.5 247.18-32.85L247.18-32.85 253.23-12.45Q253.63-11.3 253.88-10.15 254.13-9 254.48-7.75L254.48-7.75 255.33-7.75Q255.68-9 255.96-10.15 256.23-11.3 256.58-12.55L256.58-12.55 262.63-32.85Q263.03-34.5 264.73-34.5L264.73-34.5ZM287.73-34.55L287.73-34.55Q290.23-34.55 292.83-34.55 295.43-34.55 297.95-34.48 300.48-34.4 302.78-34.25L302.78-34.25 302.58-30.4 288.83-30.4Q287.33-30.4 286.63-29.65 285.93-28.9 285.93-27.25L285.93-27.25 285.93-7.25Q285.93-5.6 286.63-4.83 287.33-4.05 288.83-4.05L288.83-4.05 302.58-4.05 302.78-0.25Q300.48-0.1 297.95-0.05 295.43 0 292.83 0.03 290.23 0.05 287.73 0.05L287.73 0.05Q284.63 0.05 282.8-1.63 280.98-3.3 280.93-6.1L280.93-6.1 280.93-28.4Q280.98-31.25 282.8-32.9 284.63-34.55 287.73-34.55ZM281.83-16.25L281.83-20.1 300.63-20.1 300.63-16.25 281.83-16.25ZM321.53-34.95L321.53-34.95Q325.63-34.95 328.15-34.08 330.68-33.2 331.82-31.03 332.98-28.85 332.98-24.95L332.98-24.95Q332.98-22.2 332.32-20.35 331.68-18.5 330.3-17.45 328.93-16.4 326.57-16.1L326.57-16.1 326.57-15.85Q327.43-15.65 328.28-15.05 329.13-14.45 329.88-13.43 330.63-12.4 330.98-10.85L330.98-10.85 334.23 0 328.93 0 325.93-10.75Q325.32-12.65 324.28-13.45 323.23-14.25 321.53-14.25L321.53-14.25Q318.38-14.25 316.13-14.28 313.88-14.3 312.35-14.35 310.82-14.4 309.88-14.4L309.88-14.4 310.03-18.4 321.43-18.4Q323.88-18.45 325.28-18.98 326.68-19.5 327.3-20.85 327.93-22.2 327.93-24.65L327.93-24.65Q327.93-27.1 327.3-28.43 326.68-29.75 325.28-30.28 323.88-30.8 321.43-30.8L321.43-30.8Q317.23-30.8 314.18-30.75 311.13-30.7 310.07-30.7L310.07-30.7 309.38-34.5Q311.28-34.7 312.98-34.8 314.68-34.9 316.7-34.93 318.73-34.95 321.53-34.95ZM309.38-34.5L314.32-34.5 314.32 0 309.38 0 309.38-34.5Z" opacity="1" transform="matrix(1,0,0,1,0,0)" fill="#000000" class="undefined-text-0" data-fill-palette-color="primary" id="text-0"></path></svg></g></svg></g></svg></g></svg></g></svg></g></svg></g></svg></g><g mask="url(#95984913-b89f-4e56-95eb-158c65566816)"><g transform="matrix(5.108333333333333, 0, 0, 5.108333333333333, 123.07106172402699, 1)"><svg xmlns="http://www.w3.org/2000/svg" xmlns:xlink="http://www.w3.org/1999/xlink" version="1.1" x="0" y="0" viewBox="9.378999710083008 0 29.24199867248535 48" enable-background="new 0 0 48 48" xml:space="preserve" height="48" width="29.24199867248535" class="icon-none" data-fill-palette-color="accent" id="none"><g fill="#1c1a1a" data-fill-palette-color="accent"><path d="M16.99 46.898h3.779C21.408 47.553 22.607 48 24 48c1.395 0 2.594-0.447 3.231-1.102h3.781v-4.201L16.99 46.661V46.898z" fill="#000000" data-fill-palette-color="accent"></path><polygon points="16.99,45.908 31.012,41.943 31.012,40.741 16.99,44.704  " fill="#000000" data-fill-palette-color="accent"></polygon><polygon points="16.99,42.749 16.99,43.951 31.012,39.988 31.012,39.688 27.82,39.688  " fill="#000000" data-fill-palette-color="accent"></polygon><polygon points="16.99,41.996 25.156,39.688 16.99,39.688  " fill="#000000" data-fill-palette-color="accent"></polygon><path d="M34.301 24.993c2.666-2.648 4.32-6.317 4.32-10.373C38.621 6.546 32.074 0 24.001 0 15.925 0 9.379 6.546 9.379 14.62c0 4.323 1.889 8.196 4.871 10.873-0.006 0.001-0.012 0.003-0.02 0.004 2.98 4.301 2.902 12.345 2.902 12.345h4.459c-0.055-6.34-0.742-17.973-3.043-20.223-0.82-0.802-1.18-1.28-0.875-1.67 0.143-0.182 0.178-0.22 0.334-0.22 0.545 0 1.838 0.622 3.951 1.901l0.307 0.185 1.305-1.582c0.08-0.097 0.195-0.151 0.32-0.151 0.068 0 0.168 0.017 0.262 0.094 0.043 0.035 0.076 0.082 0.107 0.146l0.021 0.045 1.227 1.488 0.305-0.185c2.113-1.28 3.406-1.901 3.953-1.901 0.156 0 0.191 0.039 0.334 0.221 0.305 0.389-0.055 0.867-0.875 1.669-2.297 2.246-2.986 13.835-3.043 20.184h4.955c0 0-0.234-8.717 3.166-12.848L34.301 24.993z" fill="#000000" data-fill-palette-color="accent"></path><path d="M27.809 18.34l0.555-1.179-1.135 0.644c-0.527 0.3-1.082 0.629-1.592 0.944-0.066 0.04-0.141 0.062-0.219 0.062-0.123 0-0.24-0.055-0.318-0.15l-1.229-1.491-1.197 1.452c-0.078 0.096-0.195 0.15-0.318 0.15-0.078 0-0.152-0.021-0.219-0.062-0.51-0.315-1.064-0.645-1.594-0.944l-1.133-0.644 0.555 1.18c2.148 4.558 2.42 16.063 2.453 19.54h2.938C25.389 34.317 25.668 22.881 27.809 18.34z" fill="#000000" data-fill-palette-color="accent"></path></g></svg></g></g></svg></g><defs><mask id="7deeefb7-868a-493b-bb35-8bdd1bb59b5e"><rect width="640" height="400" fill="white"></rect><rect width="348.05760000000004" height="50.48005330983986" fill="black" x="145.97119999999998" y="174.75997334508008" id="transform-me" transform="matrix(1,0,0,1,-122.24000000000001,-76.4)"></rect></mask><mask id="db8ee902-22df-45eb-8f8c-abd7c97e7ec7"><rect width="640" height="400" fill="white"></rect><rect width="348.05760000000004" height="50.48005330983986" fill="black" x="145.97119999999998" y="174.75997334508008" id="transform-me" transform="matrix(1,0,0,1,-122.24000000000001,-76.4)"></rect></mask><mask id="445a6632-e4e8-49f2-a556-3facade8387e"><rect width="640" height="400" fill="white"></rect><rect width="348.05760000000004" height="50.48005330983986" fill="black" x="145.97119999999998" y="174.75997334508008" id="transform-me" transform="matrix(1,0,0,1,-122.24000000000001,-76.4)"></rect></mask><mask id="95984913-b89f-4e56-95eb-158c65566816"><rect width="640" height="400" fill="white"></rect><rect width="348.05760000000004" height="50.48005330983986" fill="black" x="145.97119999999998" y="174.75997334508008" id="transform-me" transform="matrix(1,0,0,1,-122.24000000000001,-76.4)"></rect></mask></defs></svg><rect width="395.52" height="247.2" fill="none" stroke="none" visibility="hidden"></rect></g></svg></g></svg>