<svg xmlns="http://www.w3.org/2000/svg" version="1.1" xmlns:xlink="http://www.w3.org/1999/xlink" xmlns:svgjs="http://svgjs.dev/svgjs" width="1000" height="265" viewBox="0 0 1000 265"><g transform="matrix(1,0,0,1,-0.6060603162210327,0.30590235722434045)"><svg viewBox="0 0 396 105" data-background-color="#ffffff" preserveAspectRatio="xMidYMid meet" height="265" width="1000" xmlns="http://www.w3.org/2000/svg" xmlns:xlink="http://www.w3.org/1999/xlink"><g id="tight-bounds" transform="matrix(1,0,0,1,0.24000011477650673,-0.1212053706200038)"><svg viewBox="0 0 395.5199999999999 105.2424119649919" height="105.2424119649919" width="395.5199999999999"><g><svg viewBox="0 0 395.5199999999999 105.2424119649919" height="105.2424119649919" width="395.5199999999999"><g transform="matrix(1,0,0,1,0,65.04403271053485)"><svg viewBox="0 0 395.5199999999999 40.198379254457045" height="40.198379254457045" width="395.5199999999999"><g><svg viewBox="0 0 395.5199999999999 40.198379254457045" height="40.198379254457045" width="395.5199999999999"><g><svg viewBox="0 0 395.5199999999999 40.198379254457045" height="40.198379254457045" width="395.5199999999999"><g transform="matrix(1,0,0,1,0,0)"><svg width="395.5199999999999" viewBox="5.03000020980835 -36.25 361.5 36.7400016784668" height="40.198379254457045" data-palette-color="#9c9c9c"><path d="M26.32 0L5.03 0 5.03-35.77 26.78-35.77 25.98-31.47 11.08-31.47 11.08-20.68 24.27-20.68 23.49-16.5 11.08-16.5 11.08-4.3 27.12-4.3 26.32 0ZM54.86 0L35.28 0 35.28-35.77 41.33-35.77 41.33-4.3 55.66-4.3 54.86 0ZM100.65-6.59L100.65-3.39Q99.36-2.27 97.78-1.53 96.21-0.78 94.58-0.33 92.96 0.12 91.39 0.31 89.81 0.49 88.54 0.49L88.54 0.49Q84.95 0.49 81.87-0.76 78.78-2 76.51-4.28 74.24-6.57 72.94-9.8 71.65-13.04 71.65-16.99L71.65-16.99Q71.65-20.02 72.4-22.62 73.16-25.22 74.5-27.36 75.85-29.49 77.7-31.15 79.56-32.81 81.76-33.95 83.95-35.08 86.42-35.67 88.88-36.25 91.47-36.25L91.47-36.25Q92.3-36.25 93.35-36.18 94.4-36.11 95.6-35.95 96.79-35.79 98.08-35.53 99.36-35.28 100.68-34.89L100.68-34.89 99.7-30.15 99.21-29.91Q96.67-31.08 94.46-31.52 92.25-31.96 90.64-31.96L90.64-31.96Q87.86-31.96 85.51-30.9 83.17-29.83 81.49-27.98 79.8-26.12 78.86-23.6 77.92-21.07 77.92-18.16L77.92-18.16Q77.92-15.31 78.8-12.74 79.68-10.18 81.38-8.24 83.07-6.3 85.54-5.15 88.01-4 91.2-4L91.2-4Q93.23-4 95.65-4.57 98.06-5.13 100.65-6.59L100.65-6.59ZM124.38-3.81L124.38-3.81Q127.02-3.81 129.16-4.91 131.31-6.01 132.84-7.9 134.37-9.79 135.2-12.33 136.03-14.87 136.03-17.75L136.03-17.75Q136.03-20.8 135.11-23.4 134.19-26 132.58-27.91 130.97-29.81 128.77-30.88 126.58-31.96 124.01-31.96L124.01-31.96Q121.35-31.96 119.2-30.83 117.06-29.71 115.54-27.8 114.03-25.88 113.21-23.34 112.39-20.8 112.39-17.94L112.39-17.94Q112.39-14.89 113.3-12.3 114.2-9.72 115.8-7.84 117.4-5.96 119.59-4.88 121.79-3.81 124.38-3.81ZM123.55 0.49L123.55 0.49Q121.18 0.49 118.96-0.06 116.74-0.61 114.8-1.65 112.86-2.69 111.26-4.2 109.66-5.71 108.5-7.67 107.34-9.62 106.7-11.98 106.07-14.33 106.07-17.04L106.07-17.04Q106.07-19.85 106.75-22.36 107.44-24.88 108.67-27 109.9-29.13 111.64-30.85 113.37-32.57 115.46-33.76 117.54-34.96 119.94-35.61 122.33-36.25 124.92-36.25L124.92-36.25Q128.41-36.25 131.57-35.07 134.73-33.89 137.12-31.63 139.52-29.37 140.93-26.12 142.35-22.88 142.35-18.75L142.35-18.75Q142.35-15.97 141.68-13.45 141.01-10.94 139.78-8.8 138.56-6.67 136.86-4.94 135.15-3.22 133.06-2.01 130.97-0.81 128.57-0.16 126.16 0.49 123.55 0.49ZM155.7 0L150.5 0 150.5-35.77 159.05-35.77 174.26-12.99 176.77-8.28 177.26-8.28 176.94-13.6 176.94-35.77 182.14-35.77 182.14 0 176.45 0 158.17-27.27 155.87-31.79 155.38-31.79 155.7-26.59 155.7 0ZM201.4-3.81L201.4-3.81Q202.87-3.81 204.12-4.19 205.38-4.57 206.31-5.26 207.24-5.96 207.76-6.97 208.29-7.98 208.29-9.25L208.29-9.25Q208.29-10.77 207.57-11.82 206.85-12.87 205.65-13.66 204.45-14.45 202.94-15.09 201.43-15.72 199.85-16.38 198.28-17.04 196.76-17.83 195.25-18.63 194.05-19.74 192.86-20.85 192.14-22.39 191.42-23.93 191.42-26.1L191.42-26.1Q191.42-28.47 192.32-30.35 193.22-32.23 194.86-33.54 196.49-34.86 198.76-35.56 201.03-36.25 203.77-36.25L203.77-36.25Q204.57-36.25 205.62-36.18 206.67-36.11 207.87-35.95 209.07-35.79 210.37-35.53 211.68-35.28 213-34.89L213-34.89 212.05-30.15 211.58-29.91Q210.29-30.49 209.07-30.88 207.85-31.27 206.75-31.52 205.65-31.76 204.71-31.86 203.77-31.96 203.06-31.96L203.06-31.96Q201.72-31.96 200.62-31.64 199.52-31.32 198.75-30.71 197.98-30.1 197.56-29.21 197.13-28.32 197.13-27.17L197.13-27.17Q197.13-25.63 197.86-24.55 198.59-23.46 199.78-22.63 200.96-21.8 202.49-21.15 204.01-20.51 205.61-19.84 207.21-19.17 208.74-18.38 210.26-17.6 211.45-16.53 212.63-15.45 213.36-14 214.1-12.55 214.1-10.52L214.1-10.52Q214.1-8.25 213.14-6.25 212.19-4.25 210.45-2.75 208.7-1.25 206.26-0.38 203.82 0.49 200.82 0.49L200.82 0.49Q199.59 0.49 198.25 0.33 196.91 0.17 195.52-0.12 194.13-0.42 192.76-0.85 191.39-1.29 190.12-1.86L190.12-1.86 191.1-6.64 191.59-6.88Q194.17-5.47 196.64-4.64 199.11-3.81 201.4-3.81ZM222-35.77L228.06-35.77 228.06-13.38Q228.06-10.91 228.83-9.11 229.6-7.3 230.85-6.13 232.11-4.96 233.7-4.38 235.29-3.81 236.9-3.81L236.9-3.81Q238.56-3.81 240.03-4.39 241.51-4.98 242.61-6.13 243.71-7.28 244.36-9.01 245-10.74 245-13.06L245-13.06 245-35.77 250.23-35.77 250.23-13.4Q250.23-11.74 249.85-10.07 249.47-8.4 248.69-6.86 247.91-5.32 246.72-3.98 245.54-2.64 243.93-1.65 242.32-0.66 240.28-0.09 238.24 0.49 235.77 0.49L235.77 0.49Q232.7 0.49 230.16-0.43 227.62-1.34 225.8-3.13 223.98-4.91 222.99-7.51 222-10.11 222-13.48L222-13.48 222-35.77ZM263.82 0L258.55 0 261.28-35.77 270.15-35.77 277.81-12.92 279.18-7.59 279.67-7.59 281.06-12.92 288.75-35.77 297.86-35.77 300.61 0 294.36 0 292.7-26.73 292.56-32.3 292.07-32.3 290.61-26.98 281.89-0.73 276.37-0.73 267.58-26.93 266.07-32.3 265.58-32.3 265.46-26.78 263.82 0ZM330.81 0L309.52 0 309.52-35.77 331.28-35.77 330.47-31.47 315.58-31.47 315.58-20.68 328.76-20.68 327.98-16.5 315.58-16.5 315.58-4.3 331.62-4.3 330.81 0ZM351.73-13.92L345.82-13.92 345.82 0 339.77 0 339.77-35.77 350.78-35.77Q353.71-35.77 356.04-35.02 358.37-34.28 359.98-33 361.6-31.71 362.46-30 363.33-28.3 363.33-26.34L363.33-26.34Q363.33-24.61 362.69-23.1 362.06-21.58 361.03-20.3 360.01-19.02 358.73-17.98 357.45-16.94 356.18-16.19L356.18-16.19 366.53 0 359.37 0 351.73-13.92ZM345.82-31.47L345.82-18.09 353.17-18.09Q354.08-18.58 354.83-19.31 355.59-20.04 356.14-20.96 356.69-21.88 356.98-22.92 357.27-23.97 357.27-25.1L357.27-25.1Q357.27-26.44 356.81-27.61 356.35-28.78 355.43-29.64 354.52-30.49 353.14-30.98 351.76-31.47 349.93-31.47L349.93-31.47 345.82-31.47Z" opacity="1" transform="matrix(1,0,0,1,0,0)" fill="#9c9c9c" class="undefined-text-0" data-fill-palette-color="primary" id="text-0"></path></svg></g></svg></g></svg></g></svg></g><g transform="matrix(1,0,0,1,129.0877478258659,0)"><svg viewBox="0 0 137.34450434826815 55.55416012965965" height="55.55416012965965" width="137.34450434826815"><g><svg xmlns="http://www.w3.org/2000/svg" xmlns:xlink="http://www.w3.org/1999/xlink" version="1.1" x="8" y="0" viewBox="0.14027434587478638 24.269001007080078 99.85980987548828 45.71799850463867" enable-background="new 0 0 100 100" xml:space="preserve" width="121.34450434826815" height="55.55416012965965" class="icon-icon-0" data-fill-palette-color="accent" id="icon-0"><path d="M49.701 40.913c0.552-0.154 1.069-0.347 1.557-0.573 0.487-0.229 0.895-0.498 1.215-0.809 0.521-0.505 0.609-0.881 0.254-1.126-0.353-0.246-1.159-0.463-2.424-0.652l-3.882 3.685c0.478-0.025 1.008-0.08 1.587-0.164C48.584 41.188 49.15 41.069 49.701 40.913z" fill="#949494" data-fill-palette-color="accent"></path><path d="M51.33 34.744l3.326-3.112c-0.423 0.013-0.866 0.057-1.334 0.132-0.461 0.074-0.929 0.183-1.394 0.324-0.468 0.142-0.897 0.312-1.296 0.513-0.398 0.2-0.742 0.434-1.027 0.698-0.451 0.416-0.539 0.73-0.265 0.948C49.621 34.462 50.283 34.629 51.33 34.744z" fill="#949494" data-fill-palette-color="accent"></path><path d="M75.028 49.957c0.348 0 0.679-0.138 0.925-0.382l23.665-23.077c0.372-0.373 0.485-0.934 0.283-1.423-0.201-0.488-0.678-0.806-1.206-0.806h-72.69c-0.315 0-0.619 0.113-0.857 0.32L0.589 47.666c-0.41 0.357-0.557 0.932-0.366 1.441 0.19 0.512 0.679 0.85 1.224 0.85H75.028zM37.502 38.996l5.334-0.042c-0.807 0.717-1.043 1.281-0.714 1.693 0.333 0.415 1.015 0.679 2.053 0.792l4.264-3.989c-0.099-0.024-0.239-0.049-0.415-0.079-0.183-0.029-0.383-0.054-0.605-0.078-0.79-0.114-1.547-0.25-2.264-0.408-0.716-0.157-1.276-0.37-1.679-0.642-0.407-0.268-0.591-0.607-0.554-1.016 0.04-0.408 0.403-0.923 1.093-1.543 0.704-0.633 1.565-1.198 2.589-1.696 1.021-0.5 2.109-0.927 3.267-1.283 1.157-0.358 2.354-0.646 3.591-0.864 1.235-0.219 2.432-0.367 3.584-0.445l1.565-1.466 2.194-0.087-1.561 1.475c1.043 0.026 1.957 0.115 2.739 0.268 0.786 0.156 1.376 0.387 1.775 0.694 0.403 0.309 0.583 0.705 0.548 1.189-0.035 0.485-0.361 1.066-0.984 1.747l-5.31 0.125c0.517-0.517 0.663-0.948 0.445-1.292-0.221-0.343-0.749-0.502-1.595-0.478l-3.596 3.398c0.26 0.032 0.521 0.064 0.794 0.096 0.272 0.033 0.551 0.073 0.847 0.118 1.581 0.224 2.668 0.521 3.273 0.887 0.604 0.37 0.929 0.762 0.977 1.174 0.049 0.414-0.093 0.83-0.432 1.25-0.342 0.42-0.678 0.793-1.01 1.123-0.295 0.288-0.801 0.653-1.527 1.093-0.719 0.44-1.656 0.871-2.803 1.29-1.15 0.416-2.499 0.786-4.046 1.105-1.551 0.318-3.312 0.505-5.276 0.561l-1.727 1.631-2.263-0.021 1.733-1.622c-2.734-0.116-4.481-0.559-5.24-1.328C35.812 41.565 36.125 40.458 37.502 38.996z" fill="#949494" data-fill-palette-color="accent"></path><path d="M76.558 54.748H0.45v5.226h77.191c0.69 0 1.355-0.275 1.846-0.766L100 38.884v-7.58L76.558 54.748z" fill="#949494" data-fill-palette-color="accent"></path><path d="M0.45 64.761v5.226h79.804c0.691 0 1.356-0.276 1.846-0.766L100 51.398v-7.467L79.174 64.761H0.45z" fill="#949494" data-fill-palette-color="accent"></path></svg></g></svg></g><g><rect width="129.0877478258659" height="3.625131325894327" y="50.92902880376532" x="266.4322521741341" fill="#949494" data-fill-palette-color="accent"></rect><rect width="129.0877478258659" height="3.625131325894327" y="50.92902880376532" x="0" fill="#949494" data-fill-palette-color="accent"></rect><rect width="129.0877478258659" height="3.625131325894327" y="43.67876615197667" x="266.4322521741341" fill="#949494" data-fill-palette-color="accent"></rect><rect width="129.0877478258659" height="3.625131325894327" y="43.67876615197667" x="0" fill="#949494" data-fill-palette-color="accent"></rect></g></svg></g><defs></defs></svg><rect width="395.5199999999999" height="105.2424119649919" fill="none" stroke="none" visibility="hidden"></rect></g></svg></g></svg>