<svg width="64px" height="64px" viewBox="-6.4 -6.4 44.80 44.80" id="object" xmlns="http://www.w3.org/2000/svg"><g id="SVGRepo_bgCarrier" stroke-width="0"></g><g id="SVGRepo_iconCarrier"><defs><style>.cls-1{fill:#b1cbbb;}.cls-2{fill:#8b8b9c;}.cls-3{fill:#b1cbbb;}.cls-4{fill:#b1cbbb;}</style></defs><title></title><path class="cls-1" d="M3,16H29a0,0,0,0,1,0,0v6a4,4,0,0,1-4,4H7a4,4,0,0,1-4-4V16A0,0,0,0,1,3,16Z"></path><path class="cls-2" d="M25,27H7a5,5,0,0,1-5-5V16a1,1,0,0,1,1-1H29a1,1,0,0,1,1,1v6A5,5,0,0,1,25,27ZM4,17v5a3,3,0,0,0,3,3H25a3,3,0,0,0,3-3V17Z"></path><rect class="cls-3" height="3" width="28" x="2" y="13"></rect><path class="cls-2" d="M30,17H2a1,1,0,0,1-1-1V13a1,1,0,0,1,1-1H30a1,1,0,0,1,1,1v3A1,1,0,0,1,30,17ZM3,15H29V14H3Z"></path><rect class="cls-3" height="4" width="4" x="7" y="26"></rect><path class="cls-2" d="M11,31H7a1,1,0,0,1-1-1V26a1,1,0,0,1,1-1h4a1,1,0,0,1,1,1v4A1,1,0,0,1,11,31ZM8,29h2V27H8Z"></path><rect class="cls-3" height="4" width="4" x="21" y="26"></rect><path class="cls-2" d="M25,31H21a1,1,0,0,1-1-1V26a1,1,0,0,1,1-1h4a1,1,0,0,1,1,1v4A1,1,0,0,1,25,31Zm-3-2h2V27H22Z"></path><path class="cls-2" d="M26,14a1,1,0,0,1-1-1V4.5a1.5,1.5,0,0,0-3,0V6a1,1,0,0,1-2,0V4.5a3.5,3.5,0,0,1,7,0V13A1,1,0,0,1,26,14Z"></path><path class="cls-4" d="M21,6h0a2.5,2.5,0,0,1,2.5,2.5V9a0,0,0,0,1,0,0h-5a0,0,0,0,1,0,0V8.5A2.5,2.5,0,0,1,21,6Z"></path><path class="cls-2" d="M23.5,10h-5a1,1,0,0,1-1-1V8.5a3.5,3.5,0,0,1,7,0V9A1,1,0,0,1,23.5,10ZM19.59,8h2.82a1.49,1.49,0,0,0-2.82,0Z"></path></g></svg>