<svg height="64px" width="64px" version="1.1" id="Layer_1" xmlns="http://www.w3.org/2000/svg" xmlns:xlink="http://www.w3.org/1999/xlink" viewBox="-100.69 -100.69 704.85 704.85" xml:space="preserve"><g id="SVGRepo_bgCarrier" stroke-width="0"></g><g id="SVGRepo_iconCarrier"> <g transform="translate(5 1)"> <path style="fill:#ECF4F7;" d="M460.067,88.6v341.333c0,18.773-15.36,34.133-34.133,34.133h-358.4 c-18.773,0-34.133-15.36-34.133-34.133V88.6H460.067z M460.067,37.4v51.2H33.4V37.4c0-18.773,15.36-34.133,34.133-34.133h358.4 C444.707,3.267,460.067,18.627,460.067,37.4z"></path> <path style="fill:#b1cbbb;" d="M425.933,139.8v273.067c0,9.387-7.68,17.067-17.067,17.067h-204.8 c46.933,0,85.333-38.4,85.333-85.333s-38.4-85.333-85.333-85.333s-85.333,38.4-85.333,85.333s38.4,85.333,85.333,85.333H84.6 c-9.387,0-17.067-7.68-17.067-17.067V139.8c0-9.387,7.68-17.067,17.067-17.067h324.267 C418.253,122.733,425.933,130.413,425.933,139.8"></path> <g> <path style="fill:#ECF4F7;" d="M204.067,259.267c46.933,0,85.333,38.4,85.333,85.333s-38.4,85.333-85.333,85.333 s-85.333-38.4-85.333-85.333S157.133,259.267,204.067,259.267"></path> <path style="fill:#ECF4F7;" d="M204.067,310.467c18.773,0,34.133,15.36,34.133,34.133s-15.36,34.133-34.133,34.133 c-18.773,0-34.133-15.36-34.133-34.133S185.293,310.467,204.067,310.467"></path> </g> <path style="fill:#b1cbbb;" d="M400.333,37.4c5.12,0,8.533,4.267,8.533,8.533s-3.413,8.533-8.533,8.533S391.8,50.2,391.8,45.933 S395.213,37.4,400.333,37.4z M332.067,37.4c5.12,0,8.533,4.267,8.533,8.533s-3.413,8.533-8.533,8.533s-8.533-4.267-8.533-8.533 S326.947,37.4,332.067,37.4z"></path> <polygon style="fill:#AAB1BA;" points="67.533,498.2 425.933,498.2 425.933,464.067 67.533,464.067 "></polygon> </g> <path style="fill:#51565F;" d="M430.933,503.467h-358.4c-2.56,0-4.267-1.707-4.267-4.267v-29.867 c-18.773-2.56-34.133-18.773-34.133-38.4v-307.2c0-2.56,1.707-4.267,4.267-4.267s4.267,1.707,4.267,4.267v307.2 c0,16.213,13.653,29.867,29.867,29.867H396.8c2.56,0,4.267,1.707,4.267,4.267c0,2.56-1.707,4.267-4.267,4.267h-320v25.6h349.867 v-29.867c0-2.56,1.707-4.267,4.267-4.267c16.213,0,29.867-13.653,29.867-29.867V38.4c0-16.213-13.653-29.867-29.867-29.867h-358.4 c-16.213,0-29.867,13.653-29.867,29.867v46.933h388.267c2.56,0,4.267,1.707,4.267,4.267c0,2.56-1.707,4.267-4.267,4.267H38.4 c-2.56,0-4.267-1.707-4.267-4.267V38.4C34.133,17.067,51.2,0,72.533,0h358.4c21.333,0,38.4,17.067,38.4,38.4v392.533 c0,19.627-15.36,35.84-34.133,38.4V499.2C435.2,501.76,433.493,503.467,430.933,503.467z M413.867,435.2H89.6 c-11.947,0-21.333-9.387-21.333-21.333V140.8c0-11.947,9.387-21.333,21.333-21.333h324.267c11.947,0,21.333,9.387,21.333,21.333 v273.067C435.2,425.813,425.813,435.2,413.867,435.2z M89.6,128c-6.827,0-12.8,5.973-12.8,12.8v273.067 c0,6.827,5.973,12.8,12.8,12.8h324.267c6.827,0,12.8-5.973,12.8-12.8V140.8c0-6.827-5.973-12.8-12.8-12.8H89.6z M277.333,401.067 c-0.853,0-1.707,0-2.56-0.853c-1.707-1.707-2.56-4.267-0.853-5.973c11.093-14.507,16.213-30.72,16.213-48.64 c0-44.373-36.693-81.067-81.067-81.067S128,301.226,128,345.6c0,17.92,5.973,34.133,16.213,48.64 c1.707,1.707,0.853,4.267-0.853,5.973c-1.707,1.707-4.267,0.853-5.973-0.853c-11.947-15.36-17.92-34.133-17.92-53.76 c0-49.493,40.107-89.6,89.6-89.6s89.6,40.107,89.6,89.6c0,19.627-5.973,38.4-17.92,53.76 C279.893,400.213,278.187,401.067,277.333,401.067z M379.733,401.067h-64c-2.56,0-4.267-1.707-4.267-4.267s1.707-4.267,4.267-4.267 h64c2.56,0,4.267,1.707,4.267,4.267S382.293,401.067,379.733,401.067z M209.067,384c-21.333,0-38.4-17.067-38.4-38.4 c0-21.333,17.067-38.4,38.4-38.4s38.4,17.067,38.4,38.4C247.467,366.933,230.4,384,209.067,384z M209.067,315.733 c-16.213,0-29.867,13.653-29.867,29.867c0,16.213,13.653,29.867,29.867,29.867s29.867-13.653,29.867-29.867 C238.933,329.387,225.28,315.733,209.067,315.733z M379.733,366.933h-55.467c-2.56,0-4.267-1.707-4.267-4.267 s1.707-4.267,4.267-4.267h55.467c2.56,0,4.267,1.707,4.267,4.267S382.293,366.933,379.733,366.933z M379.733,332.8h-55.467 c-2.56,0-4.267-1.707-4.267-4.267c0-2.56,1.707-4.267,4.267-4.267h55.467c2.56,0,4.267,1.707,4.267,4.267 C384,331.093,382.293,332.8,379.733,332.8z M379.733,298.667h-64c-2.56,0-4.267-1.707-4.267-4.267c0-2.56,1.707-4.267,4.267-4.267 h64c2.56,0,4.267,1.707,4.267,4.267C384,296.96,382.293,298.667,379.733,298.667z M379.733,264.533h-89.6 c-2.56,0-4.267-1.707-4.267-4.267c0-2.56,1.707-4.267,4.267-4.267h89.6c2.56,0,4.267,1.707,4.267,4.267 C384,262.827,382.293,264.533,379.733,264.533z M405.333,59.733c-6.827,0-12.8-5.973-12.8-12.8s5.973-12.8,12.8-12.8 s12.8,5.973,12.8,12.8S412.16,59.733,405.333,59.733z M405.333,42.667c-2.56,0-4.267,1.707-4.267,4.267 c0,2.56,1.707,4.267,4.267,4.267s4.267-1.707,4.267-4.267C409.6,44.373,407.893,42.667,405.333,42.667z M337.067,59.733 c-6.827,0-12.8-5.973-12.8-12.8s5.973-12.8,12.8-12.8s12.8,5.973,12.8,12.8S343.893,59.733,337.067,59.733z M337.067,42.667 c-2.56,0-4.267,1.707-4.267,4.267c0,2.56,1.707,4.267,4.267,4.267s4.267-1.707,4.267-4.267 C341.333,44.373,339.627,42.667,337.067,42.667z M157.867,51.2H89.6c-2.56,0-4.267-1.707-4.267-4.267 c0-2.56,1.707-4.267,4.267-4.267h68.267c2.56,0,4.267,1.707,4.267,4.267C162.133,49.493,160.427,51.2,157.867,51.2z"></path> </g></svg>