<svg height="64px" width="64px" version="1.1" id="Layer_1" xmlns="http://www.w3.org/2000/svg" xmlns:xlink="http://www.w3.org/1999/xlink" viewBox="-100.69 -100.69 704.85 704.85" xml:space="preserve" fill="#000000"><g id="SVGRepo_bgCarrier" stroke-width="0"></g><g id="SVGRepo_iconCarrier"> <g transform="translate(5 5)"> <polygon style="fill:#AAB1BA;" points="67.533,494.2 425.933,494.2 425.933,460.067 67.533,460.067 "></polygon> <path style="fill:#ECF4F7;" d="M460.067,67.533v51.2H33.4v-51.2C33.4,48.76,48.76,33.4,67.533,33.4h358.4 C444.707,33.4,460.067,48.76,460.067,67.533z M460.067,118.733v307.2c0,18.773-15.36,34.133-34.133,34.133h-358.4 c-18.773,0-34.133-15.36-34.133-34.133v-307.2H460.067z"></path> <g> <path style="fill:#b1cbbb;" d="M425.933,169.933v238.933c0,9.387-7.68,17.067-17.067,17.067H84.6 c-9.387,0-17.067-7.68-17.067-17.067V169.933c0-9.387,7.68-17.067,17.067-17.067h324.267 C418.253,152.867,425.933,160.547,425.933,169.933"></path> <path style="fill:#b1cbbb;" d="M349.133,67.533c5.12,0,8.533,4.267,8.533,8.533c0,4.267-3.413,8.533-8.533,8.533 s-8.533-4.267-8.533-8.533C340.6,71.8,344.013,67.533,349.133,67.533z M280.867,67.533c5.12,0,8.533,4.267,8.533,8.533 c0,4.267-3.413,8.533-8.533,8.533c-5.12,0-8.533-4.267-8.533-8.533C272.333,71.8,275.747,67.533,280.867,67.533z M144.333,67.533 c4.267,0,8.533,4.267,8.533,8.533c0,4.267-4.267,8.533-8.533,8.533s-8.533-4.267-8.533-8.533 C135.8,71.8,140.067,67.533,144.333,67.533z M212.6,67.533c5.12,0,8.533,4.267,8.533,8.533c0,4.267-3.413,8.533-8.533,8.533 c-5.12,0-8.533-4.267-8.533-8.533C204.067,71.8,207.48,67.533,212.6,67.533z"></path> </g> </g> <path style="fill:#51565F;" d="M430.933,503.467h-358.4c-2.56,0-4.267-1.707-4.267-4.267v-29.867 c-18.773-2.56-34.133-18.773-34.133-38.4V157.867c0-2.56,1.707-4.267,4.267-4.267s4.267,1.707,4.267,4.267v273.067 c0,16.213,13.653,29.867,29.867,29.867H396.8c2.56,0,4.267,1.707,4.267,4.267c0,2.56-1.707,4.267-4.267,4.267h-320v25.6h349.867 v-29.867c0-2.56,1.707-4.267,4.267-4.267c16.213,0,29.867-13.653,29.867-29.867v-358.4c0-16.213-13.653-29.867-29.867-29.867h-358.4 c-16.213,0-29.867,13.653-29.867,29.867v46.933h388.267c2.56,0,4.267,1.707,4.267,4.267c0,2.56-1.707,4.267-4.267,4.267H38.4 c-2.56,0-4.267-1.707-4.267-4.267v-51.2c0-21.333,17.067-38.4,38.4-38.4h358.4c21.333,0,38.4,17.067,38.4,38.4v358.4 c0,19.627-15.36,35.84-34.133,38.4V499.2C435.2,501.76,433.493,503.467,430.933,503.467z M413.867,435.2H89.6 c-11.947,0-21.333-9.387-21.333-21.333V174.933c0-11.947,9.387-21.333,21.333-21.333h324.267c11.947,0,21.333,9.387,21.333,21.333 v238.933C435.2,425.813,425.813,435.2,413.867,435.2z M89.6,162.133c-6.827,0-12.8,5.973-12.8,12.8v238.933 c0,6.827,5.973,12.8,12.8,12.8h324.267c6.827,0,12.8-5.973,12.8-12.8V174.933c0-6.827-5.973-12.8-12.8-12.8H89.6z M277.333,341.333 c-1.707,0-3.413-0.853-3.413-2.56c-0.853-1.707,0-4.267,1.707-5.973c0,0,14.507-7.68,14.507-22.187c0-6.827-3.413-10.24-7.68-13.653 c-4.267-4.267-9.387-9.387-9.387-20.48c0-19.627,18.773-29.013,19.627-29.013c1.707-0.853,4.267,0,5.973,1.707 c0.853,1.707,0,4.267-1.707,5.973c0,0-14.507,7.68-14.507,22.187c0,6.827,3.413,10.24,7.68,13.653 c4.267,4.267,9.387,9.387,9.387,20.48c0,19.627-18.773,29.013-19.627,29.013C279.04,341.333,278.187,341.333,277.333,341.333z M209.067,341.333c-1.707,0-3.413-0.853-3.413-2.56c-0.853-1.707,0-4.267,1.707-5.973c0,0,14.507-7.68,14.507-22.187 c0-6.827-3.413-10.24-7.68-13.653c-4.267-4.267-9.387-9.387-9.387-20.48c0-19.627,18.773-29.013,19.627-29.013 c1.707-0.853,4.267,0,5.973,1.707c0.853,1.707,0,4.267-1.707,5.973c0,0-14.507,7.68-14.507,22.187c0,6.827,3.413,10.24,7.68,13.653 c4.267,4.267,9.387,9.387,9.387,20.48c0,19.627-18.773,29.013-19.627,29.013C210.773,341.333,209.92,341.333,209.067,341.333z M354.133,93.867c-6.827,0-12.8-5.973-12.8-12.8c0-6.827,5.973-12.8,12.8-12.8s12.8,5.973,12.8,12.8 C366.933,87.893,360.96,93.867,354.133,93.867z M354.133,76.8c-2.56,0-4.267,1.707-4.267,4.267c0,2.56,1.707,4.267,4.267,4.267 s4.267-1.707,4.267-4.267C358.4,78.507,356.693,76.8,354.133,76.8z M285.867,93.867c-6.827,0-12.8-5.973-12.8-12.8 c0-6.827,5.973-12.8,12.8-12.8c6.827,0,12.8,5.973,12.8,12.8C298.667,87.893,292.693,93.867,285.867,93.867z M285.867,76.8 c-2.56,0-4.267,1.707-4.267,4.267c0,2.56,1.707,4.267,4.267,4.267s4.267-1.707,4.267-4.267 C290.133,78.507,288.427,76.8,285.867,76.8z M217.6,93.867c-6.827,0-12.8-5.973-12.8-12.8c0-6.827,5.973-12.8,12.8-12.8 c6.827,0,12.8,5.973,12.8,12.8C230.4,87.893,224.427,93.867,217.6,93.867z M217.6,76.8c-2.56,0-4.267,1.707-4.267,4.267 c0,2.56,1.707,4.267,4.267,4.267s4.267-1.707,4.267-4.267C221.867,78.507,220.16,76.8,217.6,76.8z M149.333,93.867 c-6.827,0-12.8-5.973-12.8-12.8c0-6.827,5.973-12.8,12.8-12.8c6.827,0,12.8,5.973,12.8,12.8 C162.133,87.893,156.16,93.867,149.333,93.867z M149.333,76.8c-2.56,0-4.267,1.707-4.267,4.267c0,2.56,1.707,4.267,4.267,4.267 s4.267-1.707,4.267-4.267C153.6,78.507,151.893,76.8,149.333,76.8z M396.8,8.533H277.333c-2.56,0-4.267-1.707-4.267-4.267 S274.773,0,277.333,0H396.8c2.56,0,4.267,1.707,4.267,4.267S399.36,8.533,396.8,8.533z M209.067,8.533h-102.4 c-2.56,0-4.267-1.707-4.267-4.267S104.107,0,106.667,0h102.4c2.56,0,4.267,1.707,4.267,4.267S211.627,8.533,209.067,8.533z"></path> </g></svg>