<svg height="64px" width="64px" version="1.1" id="Layer_1" xmlns="http://www.w3.org/2000/svg" xmlns:xlink="http://www.w3.org/1999/xlink" viewBox="-100.69 -100.69 704.85 704.85" xml:space="preserve"><g id="SVGRepo_bgCarrier" stroke-width="0"></g><g id="SVGRepo_iconCarrier"> <g transform="translate(7 1)"> <polygon style="fill:#AAB1BA;" points="82.6,498.2 406.867,498.2 406.867,464.067 82.6,464.067 "></polygon> <g> <path style="fill:#ECF4F7;" d="M116.733,310.467v-85.333c0-4.267-1.707-8.533-5.12-11.947c-3.413-3.413-7.68-5.12-11.947-5.12 c-9.387,0-17.067,7.68-17.067,17.067v85.333c0,4.267,1.707,8.533,5.12,11.947c3.413,3.413,7.68,5.12,11.947,5.12 C109.053,327.533,116.733,319.853,116.733,310.467L116.733,310.467z M441,173.933v256c0,18.773-15.36,34.133-34.133,34.133H82.6 c-18.773,0-34.133-15.36-34.133-34.133v-256H441z"></path> <path style="fill:#AAB1BA;" d="M116.733,88.6v34.133c0,4.267-1.707,8.533-5.12,11.947c-3.413,3.413-7.68,5.12-11.947,5.12 c-9.387,0-17.067-7.68-17.067-17.067V88.6c0-4.267,1.707-8.533,5.12-11.947c3.413-3.413,7.68-5.12,11.947-5.12 C109.053,71.533,116.733,79.213,116.733,88.6z M116.733,225.133v85.333c0,9.387-7.68,17.067-17.067,17.067 c-4.267,0-8.533-1.707-11.947-5.12c-3.413-3.413-5.12-7.68-5.12-11.947v-85.333c0-9.387,7.68-17.067,17.067-17.067 c4.267,0,8.533,1.707,11.947,5.12C115.027,216.6,116.733,220.867,116.733,225.133z"></path> <path style="fill:#ECF4F7;" d="M116.733,122.733V88.6c0-9.387-7.68-17.067-17.067-17.067c-4.267,0-8.533,1.707-11.947,5.12 c-3.413,3.413-5.12,7.68-5.12,11.947v34.133c0,9.387,7.68,17.067,17.067,17.067c4.267,0,8.533-1.707,11.947-5.12 C115.027,131.267,116.733,127,116.733,122.733 M441,37.4v136.533H48.467V37.4c0-18.773,15.36-34.133,34.133-34.133h324.267 C425.64,3.267,441,18.627,441,37.4"></path> </g> </g> <path style="fill:#51565F;" d="M413.867,503.467H89.6c-2.56,0-4.267-1.707-4.267-4.267v-29.867 c-18.773-2.56-34.133-18.773-34.133-38.4V209.067c0-2.56,1.707-4.267,4.267-4.267c2.56,0,4.267,1.707,4.267,4.267v221.867 c0,16.213,13.653,29.867,29.867,29.867h290.133c2.56,0,4.267,1.707,4.267,4.267c0,2.56-1.707,4.267-4.267,4.267H93.867v25.6H409.6 v-29.867c0-2.56,1.707-4.267,4.267-4.267c16.213,0,29.867-13.653,29.867-29.867V38.4c0-16.213-13.653-29.867-29.867-29.867H89.6 c-16.213,0-29.867,13.653-29.867,29.867v132.267h354.133c2.56,0,4.267,1.707,4.267,4.267c0,2.56-1.707,4.267-4.267,4.267h-358.4 c-2.56,0-4.267-1.707-4.267-4.267V38.4C51.2,17.067,68.267,0,89.6,0h324.267c21.333,0,38.4,17.067,38.4,38.4v392.533 c0,19.627-15.36,35.84-34.133,38.4V499.2C418.133,501.76,416.427,503.467,413.867,503.467z M106.667,332.8 c-11.947,0-21.333-9.387-21.333-21.333v-85.333c0-11.947,9.387-21.333,21.333-21.333S128,214.187,128,226.133v85.333 C128,323.413,118.613,332.8,106.667,332.8z M106.667,213.333c-6.827,0-12.8,5.973-12.8,12.8v85.333c0,6.827,5.973,12.8,12.8,12.8 s12.8-5.973,12.8-12.8v-85.333C119.467,219.307,113.493,213.333,106.667,213.333z M106.667,145.067 c-11.947,0-21.333-9.387-21.333-21.333V89.6c0-11.947,9.387-21.333,21.333-21.333S128,77.653,128,89.6v34.133 C128,135.68,118.613,145.067,106.667,145.067z M106.667,76.8c-6.827,0-12.8,5.973-12.8,12.8v34.133c0,6.827,5.973,12.8,12.8,12.8 s12.8-5.973,12.8-12.8V89.6C119.467,82.773,113.493,76.8,106.667,76.8z M413.867,110.933c-2.56,0-4.267-1.707-4.267-4.267V72.533 c0-2.56,1.707-4.267,4.267-4.267s4.267,1.707,4.267,4.267v34.133C418.133,109.227,416.427,110.933,413.867,110.933z M413.867,51.2 c-0.853,0-2.56-0.853-3.413-0.853l-8.533-8.533c-0.853-0.853-1.707-3.413-0.853-4.267c0.853-0.853,2.56-2.56,4.267-2.56 c6.827,0,12.8,5.973,12.8,12.8c0,1.707-0.853,3.413-2.56,4.267C414.72,51.2,414.72,51.2,413.867,51.2z"></path> </g></svg>