<svg version="1.1" id="Layer_1" xmlns="http://www.w3.org/2000/svg" xmlns:xlink="http://www.w3.org/1999/xlink" viewBox="-102.4 -102.4 716.80 716.80" xml:space="preserve" width="64px" height="64px" fill="#000000"><g id="SVGRepo_bgCarrier" stroke-width="0"></g><g id="SVGRepo_iconCarrier"> <rect x="32.498" y="32.54" style="fill:#b1cbbb;" width="446.958" height="446.958"></rect> <rect x="295.995" y="360" style="fill:#C9D6D6;" width="143.998" height="88.003"></rect> <path style="fill:#FFFFFF;" d="M368,216.001c-30.928,0-56,25.071-56,56c0,30.928,25.072,56,56,56s56-25.072,56-56 C424,241.072,398.928,216.001,368,216.001z M368,304c-17.674,0-32-14.327-32-32s14.327-32,32-32s32,14.327,32,32 C400,289.673,385.674,304,368,304z"></path> <circle style="fill:#C9D6D6;" cx="367.999" cy="271.997" r="32"></circle> <g> <path style="fill:#FFFFFF;" d="M368,64.001c-30.928,0-56,25.071-56,56c0,30.928,25.072,56,56,56s56-25.072,56-56 C424,89.072,398.928,64.001,368,64.001z M368,152c-17.674,0-32-14.327-32-32s14.327-32,32-32s32,14.327,32,32S385.674,152,368,152z "></path> <path style="fill:#FFFFFF;" d="M168,272c-48.601,0-88,39.399-88,88c0,48.602,39.399,88,88,88s88-39.399,88-88 C256.001,311.399,216.601,272,168,272z M168,424c-35.346,0-64-28.653-64-64s28.654-64,64-64s64,28.653,64,64 C232.001,395.347,203.346,424,168,424z"></path> </g> <circle style="fill:#C9D6D6;" cx="167.996" cy="360" r="63.994"></circle> <path style="fill:#FFFFFF;" d="M168,64.001c-48.601,0-88,39.399-88,88c0,48.601,39.399,88,88,88s88-39.399,88-88 C256.001,103.4,216.601,64.001,168,64.001z M168,216.001c-35.346,0-64-28.653-64-64s28.654-64,64-64s64,28.653,64,64 C232.001,187.346,203.346,216.001,168,216.001z"></path> <path style="fill:#b1cbbb;" d="M7.437,8.522v496.04h496.04V8.523L7.437,8.522L7.437,8.522z M479.459,479.499H32.501V32.541h446.958 V479.499z"></path> <path d="M512,512H0V0h512V512z M16.001,496h480V16h-480V496z"></path> <path d="M487.813,487.854H25.19V25.231h462.623V487.854z M40.855,472.189h431.294V40.896H40.855 C40.855,40.896,40.855,472.189,40.855,472.189z"></path> <path d="M168,456c-52.935,0-96-43.065-96-96c0-52.934,43.066-96,96-96s96,43.065,96,96C264.001,412.935,220.935,456,168,456z M168,280c-44.112,0-80,35.887-80,79.999s35.888,80,80,80s80-35.887,80-80S212.113,280,168,280z"></path> <path d="M168,248c-52.935,0-96-43.066-96-96.001C72,99.065,115.066,56,168,56s96,43.065,96,95.999 C264.001,204.935,220.935,248,168,248z M168,72.001c-44.112,0-80,35.887-80,79.999s35.888,80,80,80s80-35.888,80-80 C248,107.889,212.113,72.001,168,72.001z"></path> <path d="M368,184c-35.29,0-64-28.71-64-64s28.71-63.999,64-63.999S432,84.71,432,120S403.29,184,368,184z M368,72.001 c-26.468,0-48,21.531-48,47.999s21.532,48,48,48s48-21.532,48-48C416,93.532,394.468,72.001,368,72.001z"></path> <path d="M368,336c-35.29,0-64-28.71-64-64s28.71-63.999,64-63.999S432,236.71,432,272S403.29,336,368,336z M368,224.001 c-26.468,0-48,21.531-48,47.999s21.532,48,48,48s48-21.532,48-48C416,245.533,394.468,224.001,368,224.001z"></path> <path d="M447.999,456H288V352h160V456z M304,440H432v-71.999H304V440z"></path> <path d="M368,312.001c-22.057,0-40-17.945-40-40.001S345.945,232,368,232c22.057,0,40,17.945,40,40.001S390.057,312.001,368,312.001 z M368,248c-13.233,0-24,10.767-24,23.999c0,13.233,10.767,23.999,24,23.999s24-10.767,24-23.999C392,258.767,381.233,248,368,248z"></path> <circle style="fill:#C9D6D6;" cx="367.999" cy="120" r="32"></circle> <path d="M368,160.001c-22.057,0-40-17.945-40-40.001s17.944-40.001,40-40.001c22.057,0,40,17.945,40,40.001 S390.057,160.001,368,160.001z M368,96.001c-13.233,0-24,10.766-24,23.999s10.767,23.999,24,23.999s24-10.767,24-23.999 S381.233,96.001,368,96.001z"></path> <circle style="fill:#C9D6D6;" cx="167.996" cy="151.997" r="63.994"></circle> <path d="M168,224c-39.701,0-72-32.299-72-72s32.299-71.999,72-71.999S240,112.3,240,152C240,191.701,207.701,224,168,224z M168,96.001c-30.879,0-56,25.122-56,55.999c0,30.879,25.122,56,56,56s55.999-25.122,55.999-56 C224,121.121,198.879,96.001,168,96.001z"></path> <path d="M168,432c-39.701,0-72-32.299-72-71.999s32.299-71.999,72-71.999s72,32.299,72,71.999S207.701,432,168,432z M168,304 c-30.879,0-56,25.122-56,55.999s25.122,55.999,56,55.999s55.999-25.122,55.999-55.999C224,329.122,198.879,304,168,304z"></path> <rect x="319.68" y="384.468" style="fill:#b1cbbb;" width="15.664" height="15.664"></rect> <rect x="319.68" y="408.486" width="15.664" height="15.664"></rect> <rect x="376.071" y="384.468" style="fill:#b1cbbb;" width="39.683" height="15.664"></rect> <rect x="376.071" y="408.486" style="fill:#b1cbbb;" width="39.683" height="15.664"></rect> <rect x="343.698" y="384.468" width="15.664" height="15.664"></rect> <rect x="343.698" y="408.486" style="fill:#b1cbbb;" width="15.664" height="15.664"></rect> </g></svg>